<svg width="41" height="30" viewBox="0 0 41 30" fill="none" xmlns="http://www.w3.org/2000/svg">
<line x1="13.097" y1="24.1319" x2="13.097" y2="9.13194" stroke="#CCC3DC" stroke-width="3" stroke-linecap="round"/>
<path d="M19.6231 15.0457C20.3929 16.379 19.4307 18.0457 17.8911 18.0457L8.2479 18.0457C6.7083 18.0457 5.74605 16.379 6.51585 15.0457L11.3374 6.69445C12.1072 5.36111 14.0317 5.36111 14.8015 6.69445L19.6231 15.0457Z" fill="#4AA76F"/>
<line x1="27.0413" y1="5.19944" x2="27.0413" y2="20.1994" stroke="#CCC3DC" stroke-width="3" stroke-linecap="round"/>
<path d="M20.5152 14.2857C19.7454 12.9524 20.7076 11.2857 22.2472 11.2857L31.8904 11.2857C33.43 11.2857 34.3923 12.9524 33.6225 14.2857L28.8009 22.6369C28.0311 23.9703 26.1066 23.9703 25.3368 22.6369L20.5152 14.2857Z" fill="#E44242"/>
</svg>
