<svg width="58" height="42" viewBox="0 0 58 42" fill="none" xmlns="http://www.w3.org/2000/svg">
<path d="M0.00512695 41.3978V36.3218C0.00512695 34.8907 0.375641 33.6602 1.11667 32.6303C1.8577 31.601 2.85361 30.7783 4.10442 30.1621C6.77921 28.8887 9.43473 27.8735 12.071 27.1166C14.7077 26.3596 17.8802 25.9811 21.5885 25.9811C25.2962 25.9811 28.4684 26.3596 31.1052 27.1166C33.7419 27.8735 36.3974 28.8887 39.0717 30.1621C40.3225 30.7783 41.3185 31.601 42.0595 32.6303C42.801 33.6602 43.1718 34.8907 43.1718 36.3218V41.3978H0.00512695ZM49.3385 41.3978V36.1792C49.3385 34.3925 48.9767 32.7059 48.2531 31.1195C47.5301 29.5331 46.5044 28.1721 45.176 27.0364C46.6899 27.3447 48.1486 27.7725 49.552 28.3198C50.9549 28.8676 52.3424 29.4833 53.7145 30.1667C55.0506 30.8389 56.0982 31.6989 56.8572 32.7467C57.6157 33.7951 57.9949 34.9392 57.9949 36.1792V41.3978H49.3385ZM21.5885 19.1022C19.0447 19.1022 16.8671 18.1965 15.0556 16.385C13.2442 14.5736 12.3385 12.396 12.3385 9.8522C12.3385 7.30845 13.2442 5.13085 15.0556 3.31939C16.8671 1.50793 19.0447 0.602203 21.5885 0.602203C24.1322 0.602203 26.3098 1.50793 28.1213 3.31939C29.9327 5.13085 30.8385 7.30845 30.8385 9.8522C30.8385 12.396 29.9327 14.5736 28.1213 16.385C26.3098 18.1965 24.1322 19.1022 21.5885 19.1022ZM44.002 9.8522C44.002 12.396 43.0963 14.5736 41.2848 16.385C39.4733 18.1965 37.2957 19.1022 34.752 19.1022C34.6215 19.1022 34.4552 19.0876 34.2533 19.0583C34.0518 19.0285 33.8858 18.9958 33.7553 18.9604C34.8 17.6808 35.6027 16.2614 36.1634 14.7023C36.7245 13.1431 37.0051 11.5241 37.0051 9.84526C37.0051 8.16639 36.7114 6.56203 36.1241 5.03218C35.5372 3.50233 34.7476 2.07321 33.7553 0.744806C33.9213 0.685708 34.0873 0.647167 34.2533 0.629181C34.4192 0.611195 34.5855 0.602203 34.752 0.602203C37.2957 0.602203 39.4733 1.50793 41.2848 3.31939C43.0963 5.13085 44.002 7.30845 44.002 9.8522ZM3.08846 38.3145H40.0885V36.3218C40.0885 35.5983 39.9076 34.9657 39.5458 34.4241C39.184 33.8829 38.5347 33.3652 37.5979 32.8708C35.2972 31.6416 32.8719 30.6999 30.322 30.0457C27.7726 29.3915 24.8614 29.0645 21.5885 29.0645C18.315 29.0645 15.4036 29.3915 12.8541 30.0457C10.3042 30.6999 7.87893 31.6416 5.57825 32.8708C4.64143 33.3652 3.99213 33.8829 3.63036 34.4241C3.26909 34.9657 3.08846 35.5983 3.08846 36.3218V38.3145ZM21.5885 16.0189C23.2843 16.0189 24.736 15.4151 25.9437 14.2074C27.1513 12.9998 27.7551 11.548 27.7551 9.8522C27.7551 8.15637 27.1513 6.70463 25.9437 5.49699C24.736 4.28936 23.2843 3.68554 21.5885 3.68554C19.8926 3.68554 18.4409 4.28936 17.2333 5.49699C16.0256 6.70463 15.4218 8.15637 15.4218 9.8522C15.4218 11.548 16.0256 12.9998 17.2333 14.2074C18.4409 15.4151 19.8926 16.0189 21.5885 16.0189Z" fill="#5A1CDF"/>
</svg>
